<svg xmlns="http://www.w3.org/2000/svg" xmlns:xlink="http://www.w3.org/1999/xlink" width="98.7" height="98.685" viewBox="0 0 98.7 98.685">
  <defs>
    <linearGradient id="linear-gradient" x1="0.5" x2="0.5" y2="1" gradientUnits="objectBoundingBox">
      <stop offset="0" stop-color="#fad281"/>
      <stop offset="0" stop-color="#ebcb65"/>
      <stop offset="0.506" stop-color="#ffdc92"/>
      <stop offset="1" stop-color="#fcea94"/>
    </linearGradient>
  </defs>
  <path id="FontAwsome_sun_" data-name="FontAwsome (sun)" d="M95.25,42.748,83.724,34.942l2.64-13.684A7.793,7.793,0,0,0,77.248,12.1l-13.665,2.64L55.8,3.2c-2.91-4.3-10-4.3-12.913,0L35.1,14.743,21.451,12.1a7.814,7.814,0,0,0-9.136,9.155l2.64,13.684L3.431,42.748a7.809,7.809,0,0,0,0,12.933l11.526,7.806L12.316,77.17a7.793,7.793,0,0,0,9.136,9.136L35.1,83.666,42.884,95.21A7.779,7.779,0,0,0,55.8,95.23l7.787-11.545,13.665,2.64a7.691,7.691,0,0,0,7-2.139,7.826,7.826,0,0,0,2.139-7l-2.64-13.684L95.269,55.7a7.815,7.815,0,0,0-.019-12.952Zm-21.76,16.5,3.392,17.577L59.343,73.431l-10,14.821-10-14.841L21.818,76.8,25.21,59.227,10.408,49.2l14.8-10.022L21.818,21.6,39.357,25l9.984-14.8,10,14.821,17.539-3.392L73.49,39.182,88.292,49.2ZM49.34,29.276A20.044,20.044,0,1,0,69.385,49.32,20.079,20.079,0,0,0,49.34,29.276Zm0,30.838A10.793,10.793,0,1,1,60.133,49.32,10.8,10.8,0,0,1,49.34,60.113Z" transform="translate(0 0.025)" fill="url(#linear-gradient)"/>
</svg>
