<svg xmlns="http://www.w3.org/2000/svg" width="38.733" height="30.986" viewBox="0 0 38.733 30.986">
  <path id="FontAwsome_truck_" data-name="FontAwsome (truck)" d="M37.764,21.3H36.8V14.761a2.905,2.905,0,0,0-.853-2.052L29.9,6.663a2.905,2.905,0,0,0-2.052-.853H25.176V2.9a2.906,2.906,0,0,0-2.9-2.9H2.9A2.906,2.906,0,0,0,0,2.9V22.271a2.906,2.906,0,0,0,2.9,2.9h.968a5.81,5.81,0,1,0,11.62,0H23.24a5.81,5.81,0,1,0,11.62,0h2.9a.971.971,0,0,0,.968-.968V22.271A.971.971,0,0,0,37.764,21.3ZM9.683,28.081a2.9,2.9,0,1,1,2.9-2.9A2.906,2.906,0,0,1,9.683,28.081Zm19.366,0a2.9,2.9,0,1,1,2.9-2.9A2.906,2.906,0,0,1,29.05,28.081Zm4.842-12.588H25.176V8.715h2.669l6.046,6.046Z" fill="#585858"/>
</svg>
