<svg xmlns="http://www.w3.org/2000/svg" width="33.895" height="36.151" viewBox="0 0 33.895 36.151">
  <path id="FontAwsome_shield-alt_" data-name="FontAwsome (shield-alt)" d="M47.811,5.934,34.254.284a3.4,3.4,0,0,0-2.606,0L18.09,5.934A3.386,3.386,0,0,0,16,9.062c0,14.017,8.085,23.7,15.641,26.854a3.4,3.4,0,0,0,2.606,0C40.3,33.4,49.895,24.689,49.895,9.062A3.39,3.39,0,0,0,47.811,5.934Zm-14.857,25.6-.007-26.9L45.368,9.81C45.135,20.5,39.571,28.247,32.954,31.538Z" transform="translate(-16 -0.025)" fill="#585858"/>
</svg>
