<svg xmlns="http://www.w3.org/2000/svg" width="30.857" height="24" viewBox="0 0 30.857 24">
  <path id="FontAwsome_credit-card_" data-name="FontAwsome (credit-card)" d="M28.28,32H2.577A2.573,2.573,0,0,0,0,34.571V53.429A2.573,2.573,0,0,0,2.577,56h25.7a2.573,2.573,0,0,0,2.577-2.571V34.571A2.573,2.573,0,0,0,28.28,32ZM2.9,34.571H27.959a.322.322,0,0,1,.321.321v2.25H2.577v-2.25A.322.322,0,0,1,2.9,34.571ZM27.959,53.429H2.9a.322.322,0,0,1-.321-.321V44h25.7v9.107A.322.322,0,0,1,27.959,53.429ZM10.286,48.071v2.143a.645.645,0,0,1-.643.643H5.786a.645.645,0,0,1-.643-.643V48.071a.645.645,0,0,1,.643-.643H9.643A.645.645,0,0,1,10.286,48.071Zm10.286,0v2.143a.645.645,0,0,1-.643.643H12.643A.645.645,0,0,1,12,50.214V48.071a.645.645,0,0,1,.643-.643h7.286A.645.645,0,0,1,20.571,48.071Z" transform="translate(0 -32)" fill="#e4e5e7"/>
</svg>
