<svg xmlns="http://www.w3.org/2000/svg" width="27.113" height="30.986" viewBox="0 0 27.113 30.986">
  <path id="FontAwsome_calculator_" data-name="FontAwsome (calculator)" d="M24.208,0H2.9A2.978,2.978,0,0,0,0,2.9V28.081a2.978,2.978,0,0,0,2.9,2.9h21.3a2.978,2.978,0,0,0,2.9-2.9V2.9A2.978,2.978,0,0,0,24.208,0ZM7.747,26.338a.833.833,0,0,1-.775.775H4.648a.833.833,0,0,1-.775-.775V24.014a.833.833,0,0,1,.775-.775H6.972a.833.833,0,0,1,.775.775Zm0-7.747a.833.833,0,0,1-.775.775H4.648a.833.833,0,0,1-.775-.775V16.268a.833.833,0,0,1,.775-.775H6.972a.833.833,0,0,1,.775.775Zm7.747,7.747a.833.833,0,0,1-.775.775H12.394a.833.833,0,0,1-.775-.775V24.014a.833.833,0,0,1,.775-.775h2.324a.833.833,0,0,1,.775.775v2.324Zm0-7.747a.833.833,0,0,1-.775.775H12.394a.833.833,0,0,1-.775-.775V16.268a.833.833,0,0,1,.775-.775h2.324a.833.833,0,0,1,.775.775v2.324Zm7.747,7.747a.833.833,0,0,1-.775.775H20.141a.833.833,0,0,1-.775-.775V16.268a.833.833,0,0,1,.775-.775h2.324a.833.833,0,0,1,.775.775V26.338Zm0-15.493a.833.833,0,0,1-.775.775H4.648a.833.833,0,0,1-.775-.775v-6.2a.833.833,0,0,1,.775-.775H22.465a.833.833,0,0,1,.775.775Z" fill="#585858"/>
</svg>
